#!OML:ASF F:\VICON\USERDATA\INSTALL\rory3\rory3.ASF
:FULLY-SPECIFIED
:DEGREES
1261
root 3.53033 18.3924 2.70201 -173.695 -25.5977 177.679
lowerback 13.292 -3.03307 -4.92622
upperback 1.06835 -4.83092 0.639364
thorax -5.85043 -2.28858 4.31228
lowerneck -16.9372 1.33338 -12.1701
upperneck 36.8675 2.21906 2.37122
head 15.7252 -1.48691 3.2621
rclavicle 2.35311e-014 -1.23246e-014
rhumerus 0.473359 24.7672 -79.1005
rradius 74.4175
rwrist 50.1374
rhand -34.92 -5.87807
rfingers 7.12502
rthumb -8.06757 -35.7041
lclavicle 2.35311e-014 -1.23246e-014
lhumerus 62.3285 -18.2725 57.178
lradius 39.0976
lwrist -21.9722
lhand -10.2081 21.3931
lfingers 7.12502
lthumb 15.7832 50.7697
rfemur -2.64395 3.85314 23.8184
rtibia 21.4173
rfoot -5.68606 0.510441
rtoes 12.1857
lfemur -70.2648 7.68968 -30.3595
ltibia 89.051
lfoot -21.1439 -10.3153
ltoes 4.97295
1262
root 3.56783 18.2725 2.75946 -174.313 -25.4282 178.456
lowerback 13.4599 -3.18677 -3.89775
upperback 0.942841 -4.885 0.639618
thorax -6.15611 -2.32534 3.7661
lowerneck -17.3022 1.51539 -11.7658
upperneck 37.0498 2.48163 2.21016
head 15.8846 -1.36119 3.17554
rclavicle 1.14301e-014 -1.27222e-014
rhumerus 1.14771 24.9481 -79.4249
rradius 74.2994
rwrist 50.0006
rhand -34.8962 -4.46017
rfingers 7.12502
rthumb -8.04455 -34.2871
lclavicle 1.14301e-014 -1.27222e-014
lhumerus 62.0809 -17.87 56.9054
lradius 38.855
lwrist -22.3245
lhand -11.3479 21.4623
lfingers 7.12502
lthumb 14.6853 50.9222
rfemur -2.82843 3.9979 24.8536
rtibia 22.2647
rfoot -7.69484 0.552477
rtoes 11.9345
lfemur -71.1363 8.29108 -29.9776
ltibia 90.0805
lfoot -21.1229 -10.1883
ltoes 6.21002
1263
root 3.59933 18.1688 2.81445 -174.758 -25.1693 178.984
lowerback 13.2299 -3.01576 -3.52257
upperback 1.11883 -4.57967 0.936326
thorax -5.87186 -2.19799 3.79202
lowerneck -17.9396 1.4301 -11.7595
upperneck 37.1502 2.60893 1.96348
head 16.0912 -1.3375 3.10454
rclavicle 8.2185e-014 -3.18055e-015
rhumerus 2.47127 24.7122 -78.6965
rradius 74.0851
rwrist 49.6893
rhand -34.732 -3.16509
rfingers 7.12502
rthumb -7.88612 -32.998
lclavicle 8.2185e-014 -3.18055e-015
lhumerus 62.2322 -17.5182 57.4335
lradius 38.8573
lwrist -22.7342
lhand -12.3894 21.4472
lfingers 7.12502
lthumb 13.6817 50.9775
rfemur -3.05457 3.92628 25.5566
rtibia 23.0111
rfoot -9.49753 0.702126
rtoes 10.3829
lfemur -71.8763 8.88451 -29.8389
ltibia 90.9738
lfoot -21.1091 -10.061
ltoes 7.58928
1264
root 3.631 18.0771 2.86769 -175.085 -24.9105 179.217
lowerback 13.0373 -2.73659 -3.39553
upperback 1.49474 -4.18543 1.23066
thorax -5.3871 -2.03565 3.93565
lowerneck -19.0687 0.909705 -12.448
upperneck 37.2055 2.31622 2.15458
head 16.423 -1.49943 3.28324
rclavicle 7.91101e-014 -2.42269e-014
rhumerus 4.18484 24.1954 -77.6443
rradius 73.6997
rwrist 49.411
rhand -33.9666 -3.19606
rfingers 7.12502
rthumb -7.14729 -33.0554
lclavicle 7.91101e-014 -2.42269e-014
lhumerus 62.6702 -17.1662 58.02
lradius 39.1263
lwrist -22.9182
lhand -13.4782 21.5782
lfingers 7.12502
lthumb 12.6322 51.1762
rfemur -3.19151 3.88614 25.98
rtibia 23.5715
rfoot -11.24 0.708265
rtoes 9.51517
lfemur -72.4733 9.42224 -29.9474
ltibia 91.7395
lfoot -21.0761 -10.0265
ltoes 9.03529
1265
root 3.66722 17.9968 2.91815 -175.316 -24.7834 179.361
lowerback 12.8472 -2.6594 -3.31473
upperback 1.41273 -4.05268 1.37318
thorax -5.3751 -1.96774 4.00954
lowerneck -18.6373 0.90961 -12.3779
upperneck 37.0749 2.23036 2.04949
head 16.2628 -1.53687 3.19805
rclavicle -3.13956e-014 1.03368e-014
rhumerus 4.53014 23.9386 -77.6665
rradius 73.4267
rwrist 49.5127
rhand -32.8675 -3.33162
rfingers 7.12502
rthumb -6.08626 -33.2242
lclavicle -3.13956e-014 1.03368e-014
lhumerus 61.915 -17.138 58.7852
lradius 39.5824
lwrist -23.2918
lhand -14.4787 21.8449
lfingers 7.12502
lthumb 11.6675 51.5
rfemur -3.3112 4.02067 26.3486
rtibia 23.9733
rfoot -12.8094 0.524633
rtoes 9.42887
lfemur -73.111 9.8049 -30.1177
ltibia 92.3997
lfoot -20.8378 -9.97568
ltoes 10.4853
1266
root 3.70624 17.9296 2.9663 -175.535 -24.7406 179.619
lowerback 12.4135 -2.64599 -2.93698
upperback 1.55173 -3.97552 1.32674
thorax -5.02394 -1.95158 3.70109
lowerneck -18.6863 0.854303 -12.1254
upperneck 36.8689 2.12075 2.04673
head 16.1813 -1.51436 3.13573
rclavicle 4.33351e-014 3.97569e-016
rhumerus 5.24579 23.3493 -78.0087
rradius 73.0143
rwrist 49.7629
rhand -29.1627 -5.9065
rfingers 7.12502
rthumb -2.50883 -35.8715
lclavicle 4.33351e-014 3.97569e-016
lhumerus 61.335 -17.1277 58.9065
lradius 40.4581
lwrist -23.342
lhand -15.7094 22.5275
lfingers 7.12502
lthumb 10.4805 52.2462
rfemur -3.43677 4.14188 26.8118
rtibia 24.211
rfoot -14.0499 0.297899
rtoes 8.91103
lfemur -73.7842 10.0864 -30.1103
ltibia 92.9784
lfoot -20.4013 -10.074
ltoes 11.8346
1267
root 3.74293 17.8734 3.01224 -175.64 -24.6894 179.615
lowerback 12.1229 -2.59935 -2.98396
upperback 1.54737 -3.9066 1.37693
thorax -4.86654 -1.91947 3.75064
lowerneck -18.5216 0.820859 -11.9463
upperneck 36.6827 2.0612 1.8727
head 16.0601 -1.5207 3.01362
rclavicle 6.17599e-014 -4.32357e-015
rhumerus 5.80443 23.0012 -78.1326
rradius 72.5037
rwrist 49.818
rhand -28.8996 -5.37897
rfingers 7.12502
rthumb -2.25479 -35.3468
lclavicle 6.17599e-014 -4.32357e-015
lhumerus 60.4511 -17.201 59.0384
lradius 41.5309
lwrist -23.0463
lhand -16.6565 23.2497
lfingers 7.12502
lthumb 9.56683 53.0125
rfemur -3.48707 4.13661 26.9636
rtibia 24.2549
rfoot -15.0347 0.134937
rtoes 8.05434
lfemur -74.3031 10.3138 -30.3647
ltibia 93.4164
lfoot -20.0721 -9.90539
ltoes 11.8045
1268
root 3.78051 17.8252 3.05861 -175.759 -24.6467 179.484
lowerback 11.9205 -2.50028 -3.07191
upperback 1.70221 -3.78756 1.37411
thorax -4.59614 -1.87206 3.76012
lowerneck -18.9524 0.697416 -11.8202
upperneck 36.7339 1.95872 1.8426
head 16.2033 -1.53999 2.97037
rclavicle 3.74709e-014 1.13307e-014
rhumerus 6.58586 22.4073 -78.2067
rradius 71.8257
rwrist 49.9324
rhand -28.655 -5.0077
rfingers 7.12502
rthumb -2.01856 -34.9779
lclavicle 3.74709e-014 1.13307e-014
lhumerus 59.7182 -17.1815 59.7568
lradius 42.4867
lwrist -23.1568
lhand -17.3114 23.3364
lfingers 7.12502
lthumb 8.93487 53.1272
rfemur -3.34743 4.18677 26.9828
rtibia 24.0336
rfoot -15.7899 -0.06942
rtoes 7.61402
lfemur -74.6867 10.4887 -30.7143
ltibia 93.7478
lfoot -19.8259 -9.62799
ltoes 10.8096
1269
root 3.82845 17.7956 3.0988 -176.125 -24.4431 179.345
lowerback 12.0212 -2.45549 -3.61232
upperback 1.76195 -3.79645 1.6287
thorax -4.53576 -1.87286 4.33722
lowerneck -18.974 0.825616 -12.1412
upperneck 36.7973 2.22745 1.9312
head 16.2105 -1.47481 3.11203
rclavicle -7.72775e-015 -3.18055e-015
rhumerus 7.23357 22.5228 -78.2079
rradius 71.0563
rwrist 50.0771
rhand -28.3952 -4.77929
rfingers 7.12502
rthumb -1.76765 -34.7517
lclavicle -7.72775e-015 -3.18055e-015
lhumerus 58.0775 -16.7226 61.5282
lradius 43.3823
lwrist -23.5408
lhand -19.0876 23.2172
lfingers 7.12502
lthumb 7.22056 53.0741
rfemur -2.89904 4.60524 27.0495
rtibia 23.8276
rfoot -16.4977 -0.381455
rtoes 8.06466
lfemur -74.7578 10.9139 -30.8904
ltibia 93.9909
lfoot -19.4416 -9.64657
ltoes 9.96962
1270
root 3.88787 17.7834 3.12223 -176.724 -23.998 179.356
lowerback 12.2411 -2.14298 -4.14582
upperback 1.81285 -3.45962 1.75888
thorax -4.597 -1.69961 4.73864
lowerneck -18.6459 0.823143 -12.1771
upperneck 36.8185 2.08241 2.10868
head 16.1478 -1.5232 3.16403
rclavicle -3.28492e-014 -5.76476e-015
rhumerus 7.43079 22.0426 -78.4887
rradius 70.4314
rwrist 50.645
rhand -27.7124 -4.78396
rfingers 7.12502
rthumb -1.10819 -34.7608
lclavicle -3.28492e-014 -5.76476e-015
lhumerus 56.4739 -16.9872 62.8131
lradius 44.6082
lwrist -22.9357
lhand -21.7902 23.5613
lfingers 7.12502
lthumb 4.61136 53.4911
rfemur -2.14424 5.34266 27.3355
rtibia 23.5383
rfoot -17.1059 -0.771365
rtoes 8.8379
lfemur -74.5548 11.7969 -30.739
ltibia 94.209
lfoot -19.0292 -10.0754
ltoes 9.88994
1271
root 3.89769 17.7681 3.18782 -176.493 -24.5412 179.368
lowerback 11.8834 -2.19686 -3.31883
upperback 1.80636 -3.41407 1.56907
thorax -4.47102 -1.69163 4.04347
lowerneck -19.0111 0.532874 -12.0543
upperneck 36.841 1.62848 2.35076
head 16.2877 -1.6374 3.1795
rclavicle 5.11374e-014 7.95139e-016
rhumerus 7.99064 20.9728 -78.6436
rradius 69.8211
rwrist 51.7116
rhand -26.3368 -5.31643
rfingers 7.12502
rthumb 0.220487 -35.2961
lclavicle 5.11374e-014 7.95139e-016
lhumerus 55.5228 -17.5817 63.5169
lradius 46.1135
lwrist -22.016
lhand -23.5054 23.7363
lfingers 7.12502
lthumb 2.95506 53.6955
rfemur -2.47311 4.80271 27.2736
rtibia 23.1352
rfoot -17.1999 -0.782944
rtoes 9.37154
lfemur -75.2327 10.9839 -30.837
ltibia 94.2189
lfoot -18.2779 -9.98579
ltoes 9.53363
1272
root 3.9298 17.763 3.23928 -176.651 -24.674 179.433
lowerback 11.8344 -2.07429 -3.00252
upperback 1.92078 -3.21845 1.50733
thorax -4.36272 -1.60731 3.76506
lowerneck -19.3787 0.314245 -11.9583
upperneck 36.8903 1.29619 2.54934
head 16.4324 -1.71702 3.20073
rclavicle 8.26447e-014 -2.46493e-014
rhumerus 8.52596 20.128 -78.7982
rradius 68.9459
rwrist 51.9631
rhand -26.2825 -5.09064
rfingers 7.12502
rthumb 0.272942 -35.0702
lclavicle 8.26447e-014 -2.46493e-014
lhumerus 54.3529 -18.0123 64.3897
lradius 47.7736
lwrist -21.182
lhand -24.1805 23.2933
lfingers 7.12502
lthumb 2.30304 53.2606
rfemur -2.35545 4.74438 27.3894
rtibia 22.761
rfoot -17.1422 -0.871293
rtoes 9.82238
lfemur -75.4611 10.8478 -30.6761
ltibia 94.1802
lfoot -17.7422 -10.1648
ltoes 8.62585
1273
root 3.98354 17.7766 3.27543 -177.207 -24.3492 179.429
lowerback 12.1912 -1.73685 -3.31449
upperback 2.05049 -2.83157 1.54941
thorax -4.43897 -1.41744 3.94343
lowerneck -19.3143 0.195159 -11.7841
upperneck 36.8833 1.0176 2.62246
head 16.4393 -1.79089 3.15216
rclavicle -4.12478e-015 -9.93923e-016
rhumerus 8.80272 19.4468 -79.042
rradius 68.0027
rwrist 52.2538
rhand -26.3629 -4.93031
rfingers 7.12502
rthumb 0.19524 -34.91
lclavicle -4.12478e-015 -9.93923e-016
lhumerus 52.7406 -18.4446 65.4651
lradius 49.5535
lwrist -20.2211
lhand -24.6203 22.7137
lfingers 7.12502
lthumb 1.87827 52.6852
rfemur -1.78249 5.19507 27.5704
rtibia 22.525
rfoot -17.0557 -1.12631
rtoes 10.1529
lfemur -75.1516 11.479 -30.3988
ltibia 94.0984
lfoot -17.3092 -10.6491
ltoes 7.48611
